<svg xmlns="http://www.w3.org/2000/svg" viewBox="0 0 250 97"><style type="text/css">  
	.st0{fill:#323537;}
	.st1{fill:#4F5B28;}
	.st2{fill:#6B7A34;}
	.st3{fill:#83953A;}
	.st4{fill:#94A63A;}
	.st5{fill:none;stroke:#C4C4C4;stroke-width:0.5;stroke-miterlimit:10;}
	.st6{fill:#4C4B4C;}
</style><path class="st0" d="m48.8 41.4c1 0 1.8 0.1 2.6 0.3s1.5 0.4 2.1 0.8l-0.7 2.4c-0.7-0.4-1.4-0.6-2-0.8s-1.2-0.3-1.9-0.3c-0.9 0-1.5 0.2-2 0.5s-0.7 0.8-0.7 1.4 0.2 1 0.6 1.3 1 0.6 1.9 0.9l1.6 0.5c1.3 0.4 2.3 1 3 1.8s1 1.7 1 2.7c0 0.7-0.1 1.3-0.4 1.8-0.3 0.6-0.7 1-1.2 1.5-0.5 0.4-1.1 0.7-1.9 1-0.7 0.2-1.6 0.3-2.5 0.3s-1.8-0.1-2.7-0.3-1.7-0.5-2.5-0.9l0.7-2.3c0.7 0.3 1.4 0.6 2.1 0.8s1.4 0.3 2.2 0.3c0.9 0 1.6-0.2 2.2-0.5 0.5-0.3 0.8-0.8 0.8-1.5 0-0.2 0-0.5-0.1-0.7s-0.2-0.4-0.4-0.6-0.5-0.4-0.9-0.5c-0.4-0.2-0.8-0.3-1.4-0.5l-1.4-0.5c-1.2-0.4-2.1-0.9-2.8-1.6-0.7-0.6-1.1-1.6-1.1-2.7 0-1.4 0.5-2.5 1.5-3.3 1-0.9 2.4-1.3 4.3-1.3z"/><path class="st0" d="m64.5 45.4h3v12.1h-2.3l-0.4-1.6h-0.1c-0.4 0.4-0.9 0.7-1.6 1.1-0.6 0.3-1.5 0.5-2.4 0.5-1.3 0-2.3-0.3-3.1-1s-1.1-1.7-1.1-3.1v-7.9h3v7.5c0 0.8 0.2 1.4 0.6 1.7s0.9 0.5 1.5 0.5 1.2-0.1 1.6-0.4c0.5-0.3 0.9-0.6 1.2-0.9v-8.5z"/><path class="st0" d="m70.3 57.5v-12.1h2.3l0.4 2.6c0.3-0.7 0.7-1.3 1.4-1.8 0.6-0.5 1.4-0.8 2.3-0.8 0.4 0 0.8 0 1.1 0.1s0.6 0.1 0.8 0.2l-0.6 2.6c-0.2-0.1-0.4-0.2-0.7-0.3s-0.6-0.1-1-0.1c-0.9 0-1.6 0.3-2.2 0.9s-0.9 1.5-0.9 2.8v6h-2.9z"/><path class="st0" d="m88.6 45.4h3.2l-4.4 12.1h-3.3l-4.3-12.1h3.2l2.1 6.8 0.7 3.1h0.1l0.6-3.1 2.1-6.8z"/><path class="st0" d="m103.6 51.9h-8.2v0.1c0 1.1 0.3 1.9 1 2.5 0.7 0.5 1.6 0.8 2.7 0.8 0.7 0 1.3-0.1 1.8-0.2s1-0.3 1.5-0.5l0.6 2.1c-0.5 0.2-1.1 0.4-1.8 0.6s-1.5 0.2-2.4 0.2-1.7-0.1-2.5-0.3-1.5-0.6-2.1-1.1-1.1-1.1-1.4-1.9-0.5-1.7-0.5-2.7c0-0.9 0.1-1.8 0.4-2.5 0.3-0.8 0.7-1.4 1.2-1.9s1.2-1 1.9-1.3 1.6-0.4 2.5-0.4c1.6 0 2.9 0.5 3.8 1.4 1 0.9 1.4 2.2 1.4 3.8v1.3zm-3-2.1c0-0.3 0-0.6-0.1-0.9s-0.2-0.5-0.4-0.7-0.4-0.4-0.7-0.5-0.6-0.2-1.1-0.2c-0.8 0-1.4 0.2-1.9 0.6s-0.8 1-0.9 1.7h5.1z"/><path class="st0" d="m104.6 45.4h3.3l2.3 6.2 0.8 2.9h0.1l0.8-2.9 2-6.1h3.1l-4.5 12.7c-0.5 1.4-1.2 2.6-2 3.6s-2 1.8-3.4 2.3l-1.3-2.4c0.9-0.3 1.7-0.8 2.3-1.4s1.1-1.4 1.4-2.3l0.1-0.4-5-12.2z"/><path class="st0" d="m119.1 57.5v-16h3.1v6.5h6.6v-6.5h3.1v16h-3.1v-7.1h-6.6v7.1h-3.1z"/><path class="st0" d="m145.5 51.9h-8.2v0.1c0 1.1 0.3 1.9 1 2.5 0.7 0.5 1.6 0.8 2.7 0.8 0.7 0 1.3-0.1 1.8-0.2s1-0.3 1.5-0.5l0.6 2.1c-0.5 0.2-1.1 0.4-1.8 0.6s-1.5 0.2-2.4 0.2-1.7-0.1-2.5-0.3-1.5-0.6-2.1-1.1-1.1-1.1-1.4-1.9-0.5-1.7-0.5-2.7c0-0.9 0.1-1.8 0.4-2.5 0.3-0.8 0.7-1.4 1.2-1.9s1.2-1 1.9-1.3 1.6-0.4 2.5-0.4c1.6 0 2.9 0.5 3.8 1.4 1 0.9 1.4 2.2 1.4 3.8v1.3zm-3.1-2.1c0-0.3 0-0.6-0.1-0.9s-0.2-0.5-0.4-0.7-0.4-0.4-0.7-0.5-0.6-0.2-1.1-0.2c-0.8 0-1.4 0.2-1.9 0.6s-0.8 1-0.9 1.7h5.1z"/><path class="st0" d="m147.6 57.5v-12.1h2.3l0.4 2.6c0.3-0.7 0.7-1.3 1.4-1.8 0.6-0.5 1.4-0.8 2.3-0.8 0.4 0 0.8 0 1.1 0.1s0.6 0.1 0.8 0.2l-0.5 2.7c-0.2-0.1-0.4-0.2-0.7-0.3s-0.6-0.1-1-0.1c-0.9 0-1.6 0.3-2.2 0.9s-0.9 1.5-0.9 2.8v6h-3z"/><path class="st0" d="m168.9 51.3c0 1-0.2 1.8-0.5 2.6s-0.8 1.4-1.3 1.9c-0.6 0.5-1.2 0.9-2 1.2-0.7 0.3-1.6 0.4-2.4 0.4-0.9 0-1.7-0.1-2.4-0.4s-1.4-0.6-1.9-1.1-1-1.1-1.3-1.9c-0.3-0.7-0.5-1.6-0.5-2.5 0-1 0.2-1.9 0.5-2.6 0.3-0.8 0.8-1.4 1.3-2 0.6-0.5 1.2-0.9 2-1.2 0.7-0.3 1.6-0.4 2.4-0.4 0.9 0 1.7 0.1 2.4 0.4s1.4 0.6 1.9 1.1 1 1.1 1.3 1.9 0.5 1.6 0.5 2.6zm-3.1 0.1c0-0.7-0.1-1.3-0.3-1.8s-0.4-0.9-0.7-1.2-0.6-0.5-1-0.7c-0.4-0.1-0.7-0.2-1.1-0.2s-0.8 0.1-1.1 0.2c-0.4 0.1-0.7 0.3-0.9 0.6-0.3 0.3-0.5 0.7-0.7 1.2s-0.3 1.1-0.3 1.9c0 0.7 0.1 1.2 0.3 1.7s0.4 0.9 0.7 1.2 0.6 0.5 1 0.7c0.4 0.1 0.7 0.2 1.1 0.2s0.7-0.1 1.1-0.2 0.7-0.3 1-0.6 0.5-0.7 0.7-1.2c0.1-0.4 0.2-1 0.2-1.8z"/><path class="st1" d="m0.3 42.8c-1 5.6 0.8 11.2 4.4 15.2l3.7-12.9-8.1-2.3z"/><path class="st2" d="m11.1 40.3l-5.4 18.8c1.9 1.8 4.2 3.1 6.8 3.9l5.9-20.6-7.3-2.1z"/><path class="st3" d="m20.7 39l-7 24.3c2.9 0.7 5.9 0.6 8.7-0.1l6.3-21.9-8-2.3z"/><path class="st4" d="m23.8 62.8c5.2-1.9 9.5-6.1 11.2-11.9 0.1-0.2 0.1-0.4 0.2-0.7l0.1-0.2 1-3.6 0.8-2.9 2.1-7.2 0.4-1.3-1.3-0.4-5.9-1.6-8.6 29.8zm12.2-19v-0.1 0.1z"/><line class="st5" x1="183.8" x2="183.8" y1="27.1" y2="75.9"/><path class="st6" d="m205.9 53.6h-5.8l-2 5h-1.1l5.7-14.3h0.6l5.6 14.3h-1.1l-1.9-5zm-5.4-0.9h5.1l-1.9-5.1c-0.2-0.4-0.4-1-0.6-1.7-0.2 0.6-0.4 1.2-0.6 1.7l-2 5.1z"/><path class="st6" d="m221 48.5c0 1.4-0.5 2.4-1.4 3.2s-2.3 1.1-4 1.1h-2.2v5.9h-1v-14.3h3.5c3.4 0 5.1 1.4 5.1 4.1zm-7.6 3.4h2c1.6 0 2.8-0.3 3.5-0.8s1.1-1.4 1.1-2.6c0-1.1-0.3-1.9-1-2.4s-1.7-0.8-3.1-0.8h-2.4v6.6z"/><path class="st6" d="m225.5 58.7v-14.3h1v14.3h-1z"/></svg>